<?xml version="1.0" encoding="utf-8"?>
<svg version="1.1" xmlns:cc="http://creativecommons.org/ns#" xmlns:dc="http://purl.org/dc/elements/1.1/" xmlns:rdf="http://www.w3.org/1999/02/22-rdf-syntax-ns#" xmlns="http://www.w3.org/2000/svg" xmlns:xlink="http://www.w3.org/1999/xlink" x="0px" y="0px" viewBox="0 0 1024 768" xml:space="preserve">

 
 <g id="logo-group" fill="#52b39e" stroke-width="0" stroke-miterlimit="2" transform="translate(-329.79 -247.34) scale(1.6441)">
  <path id="path117540" style="font-variant-ligatures:none" d="m381.06 373.7c-2.448-1.008-5.256-1.512-8.352-1.512-2.592 0-4.968 0.432-7.2 1.224-2.304 0.864-4.104 2.088-5.472 3.672-1.44 1.656-2.088 3.672-2.088 5.976 0 5.832 4.608 9.648 13.824 11.376 3.528 0.72 6.048 1.512 7.56 2.52 1.44 1.008 2.232 2.232 2.232 3.672 0 1.584-0.792 2.808-2.304 3.672-1.512 0.936-3.6 1.368-6.336 1.368-2.088 0-4.032-0.36-5.832-1.08-1.872-0.72-3.24-1.656-4.104-2.664-0.864-0.864-1.8-1.296-2.736-1.296-0.792 0-1.656 0.36-2.52 1.008-1.008 0.72-1.44 1.656-1.44 2.808 0 0.864 0.288 1.656 0.936 2.232 1.584 1.656 3.888 2.952 6.768 3.96s5.904 1.512 9.216 1.512c3.24 0 6.048-0.504 8.352-1.512s4.104-2.448 5.328-4.248c1.152-1.8 1.8-3.816 1.8-6.048 0-2.952-1.152-5.4-3.312-7.272s-5.904-3.312-11.088-4.392c-2.592-0.504-4.536-1.008-5.832-1.584-1.368-0.576-2.304-1.152-2.736-1.8-0.50401-0.648-0.72001-1.44-0.72001-2.448 0-1.296 0.64801-2.376 2.088-3.096s3.24-1.152 5.472-1.152c1.872 0 3.528 0.288 4.896 0.72 1.296 0.432 2.592 1.224 3.816 2.304 1.008 0.936 2.088 1.368 3.384 1.368 0.792 0 1.44-0.144 2.016-0.576 0.79199-0.648 1.224-1.368 1.224-2.232 0-0.72-0.36001-1.512-0.936-2.304-1.44-1.728-3.456-3.168-5.904-4.176z"/>
  <path id="path117542" style="font-variant-ligatures:none" d="m445.04 373.27c-0.504-0.504-1.224-0.792-2.232-0.792-1.872 0-3.096 1.152-3.744 3.312l-7.92 24.768-6.48-25.344c-0.288-0.792-0.72-1.44-1.296-1.944s-1.368-0.792-2.232-0.792c-1.008 0-1.8 0.288-2.376 0.792s-1.008 1.152-1.224 1.944l-7.344 24.84-7.776-24.264c-0.432-1.152-0.936-1.944-1.512-2.52-0.576-0.504-1.368-0.792-2.232-0.792-2.016 0-3.024 1.008-3.024 3.024 0 0.72 0.072 1.44 0.288 2.016l10.656 31.968c0.216 0.72 0.648 1.296 1.296 1.728s1.368 0.648 2.16 0.648c0.72 0 1.44-0.216 2.088-0.648s1.08-1.008 1.368-1.728l7.416-26.136 7.056 26.136c0.144 0.72 0.576 1.296 1.224 1.728s1.368 0.648 2.232 0.648c0.72 0 1.44-0.216 2.088-0.648 0.576-0.432 1.008-1.008 1.296-1.728l10.656-31.968c0.216-0.576 0.36-1.296 0.36-2.088 0-0.864-0.288-1.584-0.792-2.16z"/>
  <path id="path117544" style="font-variant-ligatures:none" d="m458.16 373.49c-0.72 0.72-1.008 1.584-1.008 2.664v32.04c0 1.08 0.288 1.944 1.008 2.664s1.584 1.008 2.664 1.008 1.944-0.288 2.664-1.008c0.648-0.72 1.008-1.584 1.008-2.664v-32.04c0-1.08-0.36-1.944-1.008-2.664-0.72-0.648-1.584-1.008-2.664-1.008s-1.944 0.36-2.664 1.008z"/>
  <path id="path117546" style="font-variant-ligatures:none" d="m481.95 373.92v34.272c0 1.152 0.288 2.016 1.008 2.664 0.72 0.72 1.512 1.008 2.52 1.008 1.152 0 2.088-0.288 2.808-1.008 0.648-0.648 1.008-1.512 1.008-2.664v-28.08h7.344c1.008 0 1.8-0.288 2.448-0.864 0.576-0.576 0.936-1.296 0.936-2.16 0-0.936-0.36-1.728-0.936-2.304-0.648-0.576-1.44-0.864-2.448-0.864h-7.344v-1.944c0-2.88 0.792-5.256 2.448-7.056 1.584-1.728 3.744-2.664 6.48-2.664 1.008 0 1.872-0.288 2.592-0.936 0.72-0.576 1.08-1.368 1.08-2.376 0-0.936-0.36-1.728-1.08-2.376-0.72-0.576-1.584-0.936-2.592-0.936-3.24 0-6.048 0.72-8.496 2.16s-4.392 3.384-5.76 5.976-2.016 5.544-2.016 8.928z"/>
  <path id="path117548" style="font-variant-ligatures:none" d="m512.32 373.92v23.976c0 2.664 0.50401 5.04 1.656 7.128 1.08 2.16 2.592 3.816 4.536 5.04s4.104 1.8 6.48 1.8h1.296c1.224 0 2.232-0.288 3.024-1.008 0.792-0.648 1.224-1.512 1.224-2.592 0-1.008-0.36-1.872-0.936-2.592-0.576-0.648-1.296-1.008-2.16-1.008h-2.448c-1.584 0-2.88-0.648-3.888-1.944-1.08-1.296-1.584-2.88-1.584-4.824v-17.784h6.12c1.008 0 1.8-0.288 2.448-0.864 0.576-0.576 0.936-1.296 0.936-2.16 0-0.936-0.36-1.728-0.936-2.304-0.64801-0.576-1.44-0.864-2.448-0.864h-6.12v-10.368c0-1.008-0.36-1.872-1.008-2.592-0.72-0.648-1.584-1.008-2.592-1.008-1.08 0-1.944 0.36-2.592 1.008-0.72 0.72-1.008 1.584-1.008 2.592z"/>
  <path id="path117550" style="font-variant-ligatures:none" d="m564.67 373.7c-2.448-1.008-5.256-1.512-8.352-1.512-2.592 0-4.968 0.432-7.2 1.224-2.304 0.864-4.104 2.088-5.472 3.672-1.44 1.656-2.088 3.672-2.088 5.976 0 5.832 4.608 9.648 13.824 11.376 3.528 0.72 6.048 1.512 7.56 2.52 1.44 1.008 2.232 2.232 2.232 3.672 0 1.584-0.792 2.808-2.304 3.672-1.512 0.936-3.6 1.368-6.336 1.368-2.088 0-4.032-0.36-5.832-1.08-1.872-0.72-3.24-1.656-4.104-2.664-0.864-0.864-1.8-1.296-2.736-1.296-0.792 0-1.656 0.36-2.52 1.008-1.008 0.72-1.44 1.656-1.44 2.808 0 0.864 0.288 1.656 0.936 2.232 1.584 1.656 3.888 2.952 6.768 3.96s5.904 1.512 9.216 1.512c3.24 0 6.048-0.504 8.352-1.512s4.104-2.448 5.328-4.248c1.152-1.8 1.8-3.816 1.8-6.048 0-2.952-1.152-5.4-3.312-7.272s-5.904-3.312-11.088-4.392c-2.592-0.504-4.536-1.008-5.832-1.584-1.368-0.576-2.304-1.152-2.736-1.8-0.504-0.648-0.72-1.44-0.72-2.448 0-1.296 0.648-2.376 2.088-3.096s3.24-1.152 5.472-1.152c1.872 0 3.528 0.288 4.896 0.72 1.296 0.432 2.592 1.224 3.816 2.304 1.008 0.936 2.088 1.368 3.384 1.368 0.792 0 1.44-0.144 2.016-0.576 0.792-0.648 1.224-1.368 1.224-2.232 0-0.72-0.36-1.512-0.936-2.304-1.44-1.728-3.456-3.168-5.904-4.176z"/>
  <path id="path117552" style="font-variant-ligatures:none" d="m615.12 408.84c0-0.864-0.288-1.584-0.792-2.16l-13.968-17.136 13.248-11.808c0.72-0.576 1.152-1.44 1.152-2.448 0-0.864-0.36-1.584-0.936-2.232-0.648-0.72-1.44-1.152-2.448-1.152-0.864 0-1.656 0.36-2.232 0.936l-17.496 15.624v-29.3c0-1.008-0.36-1.872-1.008-2.52s-1.512-1.008-2.52-1.008c-1.08 0-1.944 0.36-2.592 1.008s-0.936 1.512-0.936 2.52v49.176c0 1.08 0.288 1.944 0.936 2.592s1.512 0.936 2.592 0.936c1.008 0 1.872-0.288 2.52-0.936s1.008-1.512 1.008-2.592v-11.02l3.6-3.168 13.68 16.92c0.648 0.864 1.512 1.296 2.592 1.296 0.792 0 1.584-0.288 2.304-0.864 0.864-0.72 1.296-1.584 1.296-2.664z"/>
  <path id="path117554" style="font-variant-ligatures:none" d="m630.24 373.49c-0.72 0.72-1.008 1.584-1.008 2.664v32.04c0 1.08 0.288 1.944 1.008 2.664 0.72001 0.72 1.584 1.008 2.664 1.008s1.944-0.288 2.664-1.008c0.648-0.72 1.008-1.584 1.008-2.664v-32.04c0-1.08-0.36001-1.944-1.008-2.664-0.72-0.648-1.584-1.008-2.664-1.008s-1.944 0.36-2.664 1.008z"/>
  <path id="path117556" style="font-variant-ligatures:none" d="m652.87 356.64c-0.72 0.72-1.008 1.584-1.008 2.592v39.312c0 2.592 0.432 4.896 1.368 6.912 0.864 2.016 2.16 3.6 3.816 4.752s3.528 1.656 5.616 1.656h0.144c1.44 0 2.592-0.288 3.528-1.008 0.86401-0.648 1.368-1.512 1.368-2.592 0-1.008-0.36-1.872-0.93601-2.592-0.576-0.648-1.368-1.008-2.304-1.008h-1.8c-1.08 0-1.944-0.576-2.592-1.728-0.72-1.152-1.008-2.592-1.008-4.392v-39.312c0-1.008-0.36-1.872-1.008-2.592-0.72001-0.648-1.584-1.008-2.592-1.008-1.08 0-1.944 0.36-2.592 1.008z"/>
 </g>

</svg>